<svg xmlns="http://www.w3.org/2000/svg" xmlns:xlink="http://www.w3.org/1999/xlink" preserveAspectRatio="xMidYMid" width="128" height="40" viewBox="0 0 2109 661">
  <defs>
    <style>
      .cls-1 {
        fill: #fff;
        fill-rule: evenodd;
      }
    </style>
  </defs>
  <path d="M2090.418,441.447 C2083.785,444.865 2076.827,447.877 2069.544,450.481 C2062.260,453.086 2054.896,455.140 2047.450,456.645 C2040.003,458.150 2032.942,458.904 2026.270,458.904 C2021.468,458.904 2016.993,458.455 2012.843,457.561 C2008.692,456.666 2005.049,455.262 2001.917,453.349 C1998.784,451.438 1996.241,448.936 1994.288,445.842 C1993.309,444.292 1992.524,442.578 1991.934,440.701 C1990.337,441.886 1988.771,443.071 1987.147,444.255 C1983.687,446.778 1980.086,449.037 1976.344,451.030 C1972.600,453.025 1968.693,454.652 1964.625,455.913 C1960.555,457.175 1956.282,457.805 1951.808,457.805 C1947.331,457.805 1943.568,454.570 1940.516,448.100 C1937.464,441.631 1935.938,432.170 1935.938,419.719 C1935.938,414.836 1936.263,409.568 1936.915,403.911 C1937.565,398.256 1938.380,392.173 1939.356,385.661 L1937.403,385.661 L1905.421,449.138 C1903.792,452.476 1901.961,454.753 1899.928,455.974 C1897.893,457.195 1895.533,457.805 1892.848,457.805 C1889.510,457.805 1886.824,457.093 1884.791,455.669 C1882.756,454.246 1881.190,452.333 1880.091,449.931 C1878.993,447.532 1878.260,444.804 1877.894,441.753 C1877.682,439.983 1877.549,438.169 1877.460,436.331 C1876.572,436.988 1875.680,437.638 1874.781,438.274 C1871.281,440.715 1867.518,443.116 1863.490,445.476 C1859.461,447.837 1855.229,449.931 1850.794,451.762 C1846.358,453.593 1841.761,455.058 1837.000,456.157 C1832.240,457.256 1827.418,457.805 1822.535,457.805 C1814.885,457.805 1808.192,456.422 1802.455,453.654 C1796.717,450.889 1791.936,447.166 1788.111,442.485 C1786.663,440.714 1785.353,438.837 1784.179,436.856 C1779.744,440.142 1775.359,443.140 1771.021,445.842 C1768.660,447.307 1766.179,448.753 1763.575,450.175 C1760.970,451.600 1758.406,452.861 1755.885,453.960 C1753.361,455.058 1750.899,455.955 1748.499,456.645 C1746.098,457.338 1743.880,457.683 1741.847,457.683 C1740.706,457.683 1739.018,457.439 1736.781,456.950 C1734.541,456.462 1732.100,455.466 1729.457,453.960 C1726.811,452.455 1724.166,450.278 1721.522,447.429 C1718.876,444.581 1716.578,440.797 1714.625,436.076 C1711.613,439.006 1708.418,441.795 1705.042,444.438 C1701.665,447.084 1698.165,449.382 1694.544,451.335 C1690.922,453.288 1687.260,454.856 1683.558,456.035 C1679.854,457.216 1676.131,457.805 1672.389,457.805 C1667.098,457.805 1662.520,456.666 1658.656,454.387 C1654.790,452.110 1651.576,449.077 1649.012,445.293 C1648.639,444.741 1648.283,444.176 1647.937,443.603 C1647.640,443.820 1647.357,444.038 1647.059,444.255 C1643.599,446.778 1639.998,449.037 1636.256,451.030 C1632.512,453.025 1628.605,454.652 1624.537,455.913 C1620.467,457.175 1616.194,457.805 1611.720,457.805 C1607.243,457.805 1603.480,454.570 1600.428,448.100 C1597.376,441.631 1595.851,432.170 1595.851,419.719 C1595.851,414.836 1596.175,409.568 1596.827,403.911 C1597.478,398.256 1598.292,392.173 1599.269,385.661 L1597.315,385.661 L1565.333,449.138 C1563.704,452.476 1561.873,454.753 1559.840,455.974 C1557.805,457.195 1555.445,457.805 1552.760,457.805 C1549.422,457.805 1546.736,457.093 1544.703,455.669 C1542.668,454.246 1541.102,452.333 1540.003,449.931 C1538.905,447.532 1538.172,444.804 1537.806,441.753 C1537.682,440.716 1537.608,439.650 1537.526,438.590 C1536.706,439.191 1535.877,439.794 1534.999,440.410 C1530.644,443.462 1525.944,446.269 1520.899,448.833 C1515.853,451.396 1510.707,453.532 1505.457,455.241 C1500.208,456.950 1495.223,457.805 1490.504,457.805 C1486.271,457.805 1482.710,457.216 1479.823,456.035 C1476.933,454.856 1474.593,453.208 1472.804,451.091 C1471.013,448.976 1469.731,446.391 1468.958,443.340 C1468.295,440.727 1467.935,437.876 1467.840,434.816 C1465.994,435.634 1464.130,436.385 1462.245,437.053 C1456.507,439.088 1451.033,440.105 1445.826,440.105 C1441.432,440.105 1437.504,439.433 1434.046,438.091 C1430.586,436.748 1427.657,434.938 1425.257,432.658 C1422.856,430.381 1420.985,427.818 1419.642,424.968 C1418.299,422.120 1417.586,419.151 1417.506,416.057 C1415.145,420.940 1412.459,425.945 1409.449,431.071 C1406.437,436.198 1403.325,440.837 1400.111,444.987 C1396.895,449.138 1393.681,452.537 1390.467,455.180 C1387.251,457.824 1384.221,459.148 1381.373,459.148 C1376.652,459.148 1372.990,457.946 1370.387,455.547 C1367.781,453.147 1365.849,450.114 1364.588,446.452 C1363.326,442.790 1362.513,438.804 1362.147,434.489 C1361.781,430.177 1361.476,426.067 1361.231,422.160 L1360.987,418.254 C1360.964,417.663 1360.940,417.086 1360.916,416.510 C1360.386,416.783 1359.881,417.071 1359.339,417.339 C1356.288,418.845 1353.114,420.106 1349.818,421.123 C1346.522,422.141 1343.165,422.649 1339.747,422.649 C1333.644,422.649 1328.719,421.409 1324.977,418.925 C1321.232,416.444 1318.263,413.188 1316.065,409.160 C1313.868,405.132 1312.239,400.615 1311.183,395.610 C1310.124,390.605 1309.270,385.539 1308.619,380.412 L1306.666,380.412 L1284.815,441.325 C1283.675,444.499 1282.597,447.124 1281.581,449.199 C1280.562,451.274 1279.524,452.964 1278.468,454.265 C1277.409,455.568 1276.270,456.483 1275.050,457.011 C1273.829,457.542 1272.486,457.805 1271.021,457.805 C1267.684,457.805 1264.998,457.093 1262.965,455.669 C1260.930,454.246 1259.364,452.333 1258.265,449.931 C1257.346,447.925 1256.699,445.675 1256.293,443.213 C1254.869,444.519 1253.402,445.807 1251.856,447.063 C1247.950,450.237 1243.758,452.922 1239.283,455.119 C1234.807,457.317 1230.330,458.415 1225.855,458.415 C1220.484,458.415 1216.008,456.687 1212.428,453.227 C1208.846,449.769 1205.754,444.743 1203.150,438.152 C1201.197,440.431 1198.796,442.750 1195.948,445.110 C1193.099,447.471 1189.986,449.607 1186.610,451.518 C1183.232,453.431 1179.713,454.997 1176.051,456.218 C1172.389,457.439 1168.727,458.049 1165.064,458.049 C1161.158,458.049 1157.353,457.256 1153.651,455.669 C1149.947,454.082 1146.672,451.804 1143.824,448.833 C1142.145,447.082 1140.669,445.099 1139.386,442.896 C1138.749,443.270 1138.112,443.646 1137.477,444.011 C1134.383,445.720 1131.190,447.410 1127.894,449.077 C1124.598,450.746 1121.281,452.232 1117.945,453.532 C1114.607,454.835 1111.353,455.873 1108.180,456.645 C1105.006,457.420 1102.034,457.805 1099.269,457.805 C1094.874,457.805 1090.785,455.873 1087.000,452.007 C1083.561,448.494 1080.529,443.875 1077.896,438.175 C1075.027,441.265 1071.869,444.232 1068.385,447.063 C1064.478,450.237 1060.286,452.922 1055.811,455.119 C1051.335,457.317 1046.858,458.415 1042.384,458.415 C1037.013,458.415 1032.536,456.687 1028.956,453.227 C1025.374,449.769 1022.282,444.743 1019.679,438.152 C1017.726,440.431 1015.324,442.750 1012.477,445.110 C1009.627,447.471 1006.514,449.607 1003.138,451.518 C999.760,453.431 996.241,454.997 992.579,456.218 C988.917,457.439 985.255,458.049 981.593,458.049 C977.686,458.049 973.881,457.256 970.179,455.669 C966.475,454.082 963.200,451.804 960.353,448.833 C957.503,445.863 955.226,442.241 953.517,437.968 C951.808,433.696 950.953,428.874 950.953,423.503 C950.953,423.105 950.988,422.700 950.995,422.300 C950.869,422.792 950.740,423.284 950.630,423.771 C946.310,442.868 903.005,510.873 883.416,534.471 C863.827,558.070 770.938,604.687 744.188,621.106 C717.437,637.525 645.679,658.773 609.760,659.610 C573.841,660.448 572.476,624.004 566.551,577.789 C560.626,531.574 571.513,490.719 576.153,423.771 C580.794,356.823 630.281,275.339 638.566,260.127 C646.851,244.915 652.969,159.053 652.969,159.053 C651.853,159.925 638.741,232.814 633.765,245.688 C627.376,262.220 599.514,305.882 580.954,356.388 C574.138,374.937 554.885,489.048 556.942,501.839 C561.811,532.102 542.302,608.378 528.144,611.480 C472.325,623.711 424.263,620.937 398.517,640.358 C362.291,667.685 304.649,662.637 225.682,654.797 C146.715,646.958 113.894,602.755 62.449,568.162 C11.003,533.570 -0.751,502.309 0.036,491.154 C0.823,479.998 48.383,443.393 62.449,423.771 C76.514,404.148 163.992,334.254 216.080,303.445 C268.168,272.635 269.950,236.690 283.294,192.744 C296.637,148.799 313.288,133.362 331.303,115.735 C349.319,98.109 403.880,72.515 465.731,33.913 C527.582,-4.688 609.760,0.222 609.760,0.222 C648.297,-1.710 697.719,9.736 700.979,9.848 C704.238,9.961 782.499,43.540 825.804,91.670 C869.109,139.801 916.413,233.824 950.630,264.940 C982.960,294.340 980.428,343.824 979.563,358.914 C981.246,357.240 982.980,355.656 984.767,354.167 C989.649,350.099 994.795,346.864 1000.208,344.463 C1005.620,342.063 1011.134,340.862 1016.749,340.862 C1018.620,340.862 1020.085,341.228 1021.144,341.960 C1022.200,342.693 1023.076,343.528 1023.768,344.463 C1024.458,345.399 1025.130,346.315 1025.782,347.209 C1026.433,348.106 1027.247,348.756 1028.224,349.162 C1029.200,349.570 1030.196,349.834 1031.214,349.956 C1032.231,350.078 1033.269,350.139 1034.327,350.139 C1035.222,350.139 1036.137,350.120 1037.074,350.078 C1038.008,350.038 1038.924,350.017 1039.820,350.017 C1041.041,350.017 1042.180,350.139 1043.238,350.383 C1044.295,350.627 1045.231,351.157 1046.046,351.970 C1046.858,352.784 1047.490,353.923 1047.938,355.388 C1048.384,356.853 1048.609,358.848 1048.609,361.369 C1048.609,365.276 1048.201,369.609 1047.389,374.370 C1046.574,379.131 1045.680,384.013 1044.703,389.018 C1043.727,394.023 1042.830,399.028 1042.018,404.033 C1041.203,409.038 1040.797,413.779 1040.797,418.254 C1040.797,422.080 1041.142,425.071 1041.834,427.226 C1042.525,429.383 1044.011,430.461 1046.290,430.461 C1047.999,430.461 1049.788,430.034 1051.661,429.179 C1053.532,428.325 1055.424,427.207 1057.337,425.822 C1059.249,424.440 1061.162,422.874 1063.075,421.123 C1064.986,419.374 1066.798,417.564 1068.507,415.691 C1069.159,414.972 1069.812,414.232 1070.467,413.483 C1068.918,404.992 1068.141,396.086 1068.141,386.760 C1068.141,379.518 1068.669,371.644 1069.728,363.139 C1070.784,354.636 1072.331,345.866 1074.366,336.833 C1076.399,327.800 1078.822,318.727 1081.629,309.612 C1084.437,300.498 1087.611,291.749 1091.151,283.366 C1094.691,274.986 1098.536,267.152 1102.686,259.868 C1106.837,252.586 1111.189,246.238 1115.748,240.825 C1120.305,235.414 1125.065,231.162 1130.030,228.069 C1134.993,224.977 1140.040,223.430 1145.167,223.430 C1148.665,223.430 1151.555,224.223 1153.834,225.810 C1156.111,227.397 1157.902,229.493 1159.205,232.097 C1160.506,234.702 1161.421,237.651 1161.952,240.947 C1162.480,244.243 1162.745,247.600 1162.745,251.018 C1162.745,258.668 1161.870,266.460 1160.121,274.394 C1158.370,282.329 1156.010,290.305 1153.041,298.320 C1150.069,306.337 1146.632,314.372 1142.726,322.429 C1138.819,330.486 1134.749,338.481 1130.519,346.416 C1126.286,354.350 1122.035,362.163 1117.762,369.853 C1113.490,377.544 1109.480,385.051 1105.738,392.375 C1105.330,393.190 1104.903,394.248 1104.457,395.549 C1104.008,396.852 1103.581,398.256 1103.175,399.760 C1102.767,401.267 1102.360,402.873 1101.954,404.582 C1101.546,406.291 1101.222,407.960 1100.978,409.587 L1100.978,411.296 C1100.978,413.413 1101.201,415.467 1101.649,417.461 C1102.095,419.456 1102.645,421.245 1103.297,422.832 C1103.947,424.419 1104.640,425.681 1105.372,426.616 C1106.104,427.552 1106.795,428.020 1107.447,428.020 C1108.992,428.020 1110.762,427.695 1112.757,427.043 C1114.750,426.393 1116.866,425.517 1119.105,424.419 C1121.342,423.320 1123.641,422.059 1126.002,420.634 C1128.361,419.212 1130.641,417.766 1132.838,416.301 C1133.554,415.823 1134.277,415.333 1135.003,414.834 C1135.428,411.503 1136.078,408.129 1136.988,404.704 C1138.697,398.277 1141.057,391.990 1144.068,385.844 C1147.078,379.701 1150.639,373.903 1154.749,368.449 C1158.858,362.998 1163.355,358.237 1168.238,354.167 C1173.121,350.099 1178.267,346.864 1183.680,344.463 C1189.091,342.063 1194.605,340.862 1200.221,340.862 C1202.092,340.862 1203.557,341.228 1204.615,341.960 C1205.672,342.693 1206.547,343.528 1207.240,344.463 C1207.930,345.399 1208.602,346.315 1209.254,347.209 C1209.904,348.106 1210.719,348.756 1211.695,349.162 C1212.672,349.570 1213.667,349.834 1214.686,349.956 C1215.703,350.078 1216.740,350.139 1217.799,350.139 C1218.693,350.139 1219.609,350.120 1220.545,350.078 C1221.480,350.038 1222.396,350.017 1223.292,350.017 C1224.513,350.017 1225.651,350.139 1226.710,350.383 C1227.767,350.627 1228.703,351.157 1229.518,351.970 C1230.330,352.784 1230.961,353.923 1231.410,355.388 C1231.856,356.853 1232.081,358.848 1232.081,361.369 C1232.081,365.276 1231.673,369.609 1230.860,374.370 C1230.046,379.131 1229.151,384.013 1228.175,389.018 C1227.198,394.023 1226.302,399.028 1225.489,404.033 C1224.675,409.038 1224.269,413.779 1224.269,418.254 C1224.269,422.080 1224.614,425.071 1225.306,427.226 C1225.997,429.383 1227.482,430.461 1229.762,430.461 C1231.471,430.461 1233.260,430.034 1235.133,429.179 C1237.004,428.325 1238.896,427.207 1240.809,425.822 C1242.720,424.440 1244.633,422.874 1246.546,421.123 C1248.458,419.374 1250.270,417.564 1251.978,415.691 C1253.699,413.794 1255.427,411.785 1257.163,409.677 C1257.355,408.043 1257.556,406.392 1257.777,404.704 C1258.467,399.415 1259.282,394.023 1260.218,388.530 C1261.153,383.037 1262.150,377.809 1263.209,372.844 C1264.266,367.881 1265.324,363.322 1266.383,359.172 C1267.439,355.022 1268.498,351.604 1269.557,348.918 C1270.207,347.129 1270.857,345.704 1271.510,344.646 C1272.160,343.589 1272.914,342.754 1273.768,342.143 C1274.623,341.533 1275.679,341.127 1276.942,340.923 C1278.203,340.720 1279.769,340.617 1281.642,340.617 C1283.757,340.617 1285.405,340.720 1286.585,340.923 C1287.764,341.127 1288.640,341.615 1289.210,342.387 C1289.778,343.162 1290.125,344.279 1290.248,345.744 C1290.370,347.209 1290.431,349.204 1290.431,351.726 C1290.431,354.737 1290.431,358.379 1290.431,362.651 C1290.431,366.924 1290.511,371.135 1290.675,375.285 L1292.018,375.285 C1293.645,372.031 1295.476,368.388 1297.511,364.360 C1299.544,360.332 1301.905,356.569 1304.591,353.069 C1307.276,349.570 1310.328,346.620 1313.746,344.218 C1317.164,341.819 1321.110,340.617 1325.587,340.617 C1327.132,340.617 1328.639,340.882 1330.103,341.411 C1331.568,341.941 1332.850,342.693 1333.949,343.669 C1335.047,344.646 1335.921,345.847 1336.573,347.270 C1337.224,348.695 1337.550,350.303 1337.550,352.092 C1337.550,353.477 1337.346,355.409 1336.939,357.890 C1336.531,360.374 1336.085,362.977 1335.597,365.703 C1335.108,368.430 1334.660,371.074 1334.254,373.637 C1333.846,376.201 1333.644,378.337 1333.644,380.046 C1333.644,382.976 1333.928,385.417 1334.498,387.370 C1335.066,389.323 1335.820,390.891 1336.756,392.070 C1337.691,393.251 1338.749,394.084 1339.930,394.572 C1341.109,395.061 1342.351,395.305 1343.653,395.305 C1347.315,395.305 1351.100,394.492 1355.006,392.863 C1356.604,392.198 1358.133,391.489 1359.622,390.755 C1359.609,390.522 1359.596,390.286 1359.583,390.056 C1359.379,386.394 1359.236,383.018 1359.156,379.924 C1359.074,376.832 1359.034,373.658 1359.034,370.403 C1359.034,362.022 1359.419,355.491 1360.194,350.810 C1360.966,346.132 1362.654,343.589 1365.260,343.181 L1379.908,340.862 C1380.314,340.781 1380.702,340.720 1381.068,340.678 C1381.434,340.638 1381.819,340.617 1382.228,340.617 C1384.993,340.617 1387.129,341.432 1388.636,343.059 C1390.141,344.688 1390.935,346.559 1391.017,348.674 L1386.256,425.945 L1387.965,425.822 L1420.069,349.284 C1420.313,348.146 1420.842,347.047 1421.656,345.988 C1422.469,344.932 1423.527,344.016 1424.830,343.242 C1426.131,342.469 1427.577,341.838 1429.164,341.350 C1430.750,340.862 1432.438,340.617 1434.229,340.617 C1438.948,340.617 1442.732,341.575 1445.582,343.486 C1448.430,345.399 1449.854,347.861 1449.854,350.871 C1449.854,353.151 1449.549,355.308 1448.939,357.341 C1448.329,359.376 1447.474,361.594 1446.375,363.994 C1445.277,366.395 1443.974,369.060 1442.469,371.989 C1440.962,374.919 1439.314,378.379 1437.525,382.365 C1436.955,383.830 1436.467,385.337 1436.061,386.882 C1435.652,388.267 1435.307,389.833 1435.023,391.582 C1434.737,393.333 1434.596,395.143 1434.596,397.014 C1434.596,398.967 1434.840,400.880 1435.328,402.751 C1435.816,404.624 1436.671,406.312 1437.892,407.817 C1439.112,409.324 1440.779,410.524 1442.896,411.418 C1445.012,412.315 1447.737,412.761 1451.075,412.761 C1453.517,412.761 1456.343,412.132 1459.559,410.869 C1462.773,409.608 1465.804,408.164 1468.653,406.535 C1469.619,405.994 1470.593,405.426 1471.572,404.843 C1472.285,401.377 1473.061,397.852 1473.902,394.267 C1475.611,386.985 1477.421,379.722 1479.334,372.478 C1481.246,365.236 1482.936,358.562 1484.400,352.458 C1484.969,350.343 1486.109,348.533 1487.818,347.026 C1489.527,345.521 1491.459,344.300 1493.617,343.364 C1495.772,342.429 1498.011,341.737 1500.331,341.289 C1502.650,340.842 1504.744,340.617 1506.617,340.617 C1510.035,340.617 1512.354,341.249 1513.575,342.509 C1514.796,343.772 1515.406,345.460 1515.406,347.575 C1515.406,349.366 1514.998,351.951 1514.186,355.327 C1513.371,358.705 1512.354,362.529 1511.134,366.801 C1509.913,371.074 1508.610,375.673 1507.228,380.595 C1505.843,385.520 1504.542,390.443 1503.321,395.366 C1502.101,400.291 1501.082,405.091 1500.270,409.770 C1499.455,414.451 1499.049,418.662 1499.049,422.404 C1499.049,426.067 1499.455,428.977 1500.270,431.133 C1501.082,433.290 1502.751,434.367 1505.274,434.367 C1508.204,434.367 1511.458,433.351 1515.040,431.316 C1518.620,429.282 1522.242,426.820 1525.904,423.930 C1529.566,421.043 1533.146,418.052 1536.646,414.958 C1537.190,414.477 1537.721,414.011 1538.246,413.552 C1538.894,406.554 1539.704,399.434 1540.675,392.192 C1541.651,384.910 1542.750,377.891 1543.971,371.135 C1545.191,364.381 1546.370,358.604 1547.511,353.801 C1548.405,350.059 1550.135,346.925 1552.699,344.402 C1555.262,341.880 1558.741,340.617 1563.136,340.617 C1567.530,340.617 1570.582,341.960 1572.291,344.646 C1574.000,347.331 1574.854,350.913 1574.854,355.388 C1574.854,356.609 1574.732,358.257 1574.488,360.332 C1574.244,362.407 1573.939,364.686 1573.573,367.168 C1573.207,369.651 1572.819,372.215 1572.413,374.858 C1572.005,377.504 1571.620,379.945 1571.253,382.182 C1570.887,384.422 1570.582,386.375 1570.338,388.042 C1570.094,389.711 1569.972,390.830 1569.972,391.399 L1572.413,391.399 C1572.901,390.504 1573.674,389.060 1574.732,387.065 C1575.789,385.072 1577.010,382.774 1578.395,380.168 C1579.777,377.565 1581.263,374.818 1582.850,371.928 C1584.437,369.041 1585.921,366.273 1587.306,363.628 C1588.688,360.984 1589.949,358.644 1591.090,356.609 C1592.228,354.575 1593.083,353.069 1593.653,352.092 C1596.257,347.697 1599.227,344.688 1602.564,343.059 C1605.900,341.432 1609.603,340.617 1613.673,340.617 C1617.741,340.617 1620.976,342.326 1623.377,345.744 C1625.777,349.162 1626.978,353.883 1626.978,359.904 C1626.978,360.801 1626.795,362.306 1626.429,364.421 C1626.063,366.538 1625.594,369.060 1625.025,371.989 C1624.455,374.919 1623.824,378.135 1623.133,381.633 C1622.441,385.133 1621.810,388.713 1621.241,392.375 C1620.671,396.037 1620.204,399.659 1619.837,403.239 C1619.471,406.821 1619.288,410.117 1619.288,413.127 C1619.288,418.174 1619.917,422.324 1621.180,425.578 C1622.441,428.834 1624.415,430.461 1627.101,430.461 C1628.321,430.461 1629.725,430.095 1631.312,429.362 C1632.899,428.630 1634.608,427.674 1636.439,426.494 C1638.135,425.402 1639.867,424.144 1641.633,422.737 C1641.485,421.015 1641.383,419.282 1641.383,417.522 C1641.383,412.315 1642.054,407.045 1643.397,401.714 C1644.740,396.384 1646.693,391.216 1649.256,386.211 C1651.820,381.206 1654.933,376.487 1658.595,372.050 C1662.257,367.616 1666.407,363.670 1671.046,360.210 C1675.685,356.752 1680.729,353.883 1686.183,351.604 C1691.634,349.326 1697.453,347.902 1703.639,347.331 C1703.883,336.915 1704.817,326.621 1706.446,316.447 C1708.073,306.276 1710.230,296.592 1712.916,287.395 C1715.602,278.199 1718.754,269.695 1722.376,261.882 C1725.997,254.070 1729.964,247.316 1734.278,241.618 C1738.591,235.923 1743.189,231.467 1748.072,228.252 C1752.955,225.038 1758.000,223.430 1763.209,223.430 C1767.033,223.430 1770.289,224.427 1772.975,226.421 C1775.660,228.416 1777.836,231.059 1779.505,234.355 C1781.172,237.651 1782.374,241.477 1783.106,245.830 C1783.839,250.184 1784.205,254.680 1784.205,259.319 C1784.205,262.168 1784.083,265.098 1783.839,268.108 C1782.780,279.582 1780.827,290.427 1777.979,300.639 C1775.130,310.853 1771.794,320.802 1767.970,330.486 C1764.144,340.171 1759.993,349.773 1755.519,359.294 C1751.042,368.816 1746.687,378.703 1742.457,388.957 C1742.049,390.098 1741.643,391.481 1741.236,393.108 C1740.828,394.736 1740.443,396.507 1740.077,398.418 C1739.710,400.331 1739.405,402.284 1739.161,404.277 C1738.917,406.272 1738.795,408.204 1738.795,410.075 C1738.795,412.437 1738.936,414.674 1739.222,416.789 C1739.506,418.906 1739.974,420.798 1740.626,422.466 C1741.276,424.134 1742.152,425.456 1743.250,426.433 C1744.349,427.409 1745.711,427.898 1747.340,427.898 C1748.885,427.898 1750.575,427.592 1752.406,426.982 C1754.237,426.372 1756.169,425.538 1758.204,424.480 C1760.237,423.423 1762.293,422.221 1764.369,420.879 C1766.444,419.536 1768.458,418.174 1770.411,416.789 C1772.501,415.269 1774.638,413.647 1776.818,411.931 C1776.698,410.274 1776.637,408.597 1776.637,406.902 C1776.637,402.345 1777.083,397.523 1777.979,392.436 C1778.874,387.351 1780.238,382.365 1782.069,377.483 C1783.900,372.600 1786.198,367.942 1788.966,363.506 C1791.731,359.071 1794.966,355.165 1798.670,351.787 C1802.373,348.411 1806.523,345.725 1811.122,343.730 C1815.718,341.737 1820.826,340.739 1826.441,340.739 C1830.998,340.739 1835.230,341.472 1839.137,342.937 C1843.043,344.402 1846.440,346.458 1849.330,349.101 C1852.217,351.747 1854.476,354.942 1856.104,358.684 C1857.731,362.428 1858.546,366.618 1858.546,371.257 C1858.546,376.304 1857.304,381.349 1854.823,386.394 C1852.339,391.441 1848.902,396.201 1844.508,400.676 C1840.113,405.153 1834.883,409.141 1828.822,412.639 C1822.758,416.139 1816.187,418.864 1809.107,420.818 C1810.328,423.015 1811.528,424.846 1812.708,426.311 C1813.887,427.776 1815.089,428.916 1816.310,429.729 C1817.530,430.543 1818.812,431.113 1820.155,431.438 C1821.498,431.764 1822.941,431.926 1824.488,431.926 C1829.371,431.926 1834.517,430.949 1839.930,428.996 C1845.341,427.043 1850.611,424.602 1855.738,421.672 C1860.865,418.742 1865.706,415.549 1870.265,412.090 C1873.635,409.532 1876.622,407.076 1879.236,404.718 C1879.693,400.582 1880.197,396.410 1880.763,392.192 C1881.739,384.910 1882.838,377.891 1884.059,371.135 C1885.279,364.381 1886.458,358.604 1887.599,353.801 C1888.493,350.059 1890.223,346.925 1892.787,344.402 C1895.350,341.880 1898.829,340.617 1903.224,340.617 C1907.618,340.617 1910.670,341.960 1912.379,344.646 C1914.088,347.331 1914.942,350.913 1914.942,355.388 C1914.942,356.609 1914.820,358.257 1914.576,360.332 C1914.332,362.407 1914.027,364.686 1913.661,367.168 C1913.294,369.651 1912.907,372.215 1912.501,374.858 C1912.093,377.504 1911.707,379.945 1911.341,382.182 C1910.975,384.422 1910.670,386.375 1910.426,388.042 C1910.182,389.711 1910.060,390.830 1910.060,391.399 L1912.501,391.399 C1912.989,390.504 1913.762,389.060 1914.820,387.065 C1915.877,385.072 1917.098,382.774 1918.482,380.168 C1919.865,377.565 1921.351,374.818 1922.938,371.928 C1924.525,369.041 1926.009,366.273 1927.394,363.628 C1928.776,360.984 1930.037,358.644 1931.178,356.609 C1932.316,354.575 1933.171,353.069 1933.741,352.092 C1936.345,347.697 1939.314,344.688 1942.652,343.059 C1945.988,341.432 1949.690,340.617 1953.761,340.617 C1957.829,340.617 1961.064,342.326 1963.465,345.744 C1965.865,349.162 1967.066,353.883 1967.066,359.904 C1967.066,360.801 1966.883,362.306 1966.517,364.421 C1966.151,366.538 1965.682,369.060 1965.113,371.989 C1964.543,374.919 1963.912,378.135 1963.221,381.633 C1962.529,385.133 1961.897,388.713 1961.329,392.375 C1960.759,396.037 1960.291,399.659 1959.925,403.239 C1959.559,406.821 1959.376,410.117 1959.376,413.127 C1959.376,418.174 1960.005,422.324 1961.268,425.578 C1962.529,428.834 1964.503,430.461 1967.188,430.461 C1968.409,430.461 1969.813,430.095 1971.400,429.362 C1972.505,428.852 1973.673,428.227 1974.897,427.500 C1974.886,427.195 1974.879,426.882 1974.879,426.555 C1974.879,424.602 1975.367,422.792 1976.344,421.123 C1977.320,419.456 1978.459,417.970 1979.762,416.667 C1981.062,415.366 1982.365,414.226 1983.668,413.249 C1984.969,412.273 1985.945,411.500 1986.598,410.930 C1991.154,407.024 1994.856,403.770 1997.706,401.164 C2000.554,398.561 2002.995,396.180 2005.030,394.023 C2007.063,391.868 2008.916,389.690 2010.584,387.492 C2012.251,385.295 2014.226,382.692 2016.505,379.680 C2018.782,376.670 2021.550,372.987 2024.806,368.633 C2028.060,364.280 2032.292,358.848 2037.501,352.336 C2038.558,350.871 2039.738,349.448 2041.041,348.064 C2042.342,346.681 2043.788,345.439 2045.374,344.341 C2046.961,343.242 2048.710,342.347 2050.624,341.655 C2052.535,340.965 2054.671,340.617 2057.032,340.617 C2060.938,340.617 2063.948,341.045 2066.065,341.899 C2068.181,342.754 2069.728,343.791 2070.704,345.012 C2071.681,346.233 2072.249,347.514 2072.413,348.857 C2072.575,350.200 2072.657,351.360 2072.657,352.336 C2072.657,354.289 2071.883,356.446 2070.338,358.806 C2068.791,361.167 2067.082,363.445 2065.211,365.642 C2063.338,367.839 2061.568,369.853 2059.901,371.684 C2058.232,373.515 2057.276,374.879 2057.032,375.774 C2057.032,378.297 2057.215,380.595 2057.582,382.671 C2057.948,384.746 2058.436,386.781 2059.046,388.774 C2059.657,390.769 2060.286,392.884 2060.938,395.122 C2061.589,397.361 2062.220,399.944 2062.831,402.873 C2063.441,405.803 2063.929,409.181 2064.295,413.005 C2064.662,416.831 2064.845,421.348 2064.845,426.555 C2067.774,424.602 2070.927,422.832 2074.305,421.245 C2077.681,419.658 2081.202,418.010 2084.864,416.301 C2088.526,414.592 2092.290,412.700 2096.156,410.625 C2100.020,408.550 2103.907,406.047 2107.813,403.117 L2107.936,430.461 C2102.889,434.367 2097.050,438.029 2090.418,441.447 ZM937.233,405.728 C935.930,402.392 934.993,400.033 934.425,398.648 C933.693,397.021 933.326,396.167 933.326,396.085 C929.094,402.840 924.821,408.822 920.509,414.029 C918.636,416.308 916.683,418.527 914.650,420.682 C912.614,422.839 910.560,424.752 908.485,426.419 C906.410,428.088 904.335,429.431 902.259,430.447 C900.184,431.466 898.210,431.973 896.339,431.973 C893.001,431.973 890.459,430.896 888.710,428.738 C886.959,426.583 886.085,423.104 886.085,418.301 C886.085,414.477 886.552,409.940 887.489,404.691 C888.424,399.442 889.583,393.725 890.968,387.540 C892.351,381.356 893.837,374.804 895.424,367.886 C897.010,360.970 898.494,353.909 899.879,346.707 C901.262,339.505 902.422,332.223 903.358,324.857 C904.293,317.492 904.762,310.311 904.762,303.311 C904.762,295.825 904.070,288.724 902.687,282.010 C901.302,275.296 899.309,269.437 896.705,264.432 C894.100,259.427 890.865,255.460 887.001,252.530 C883.134,249.600 878.719,248.135 873.756,248.135 C866.594,248.135 859.676,249.926 853.004,253.507 C846.330,257.089 840.105,262.235 834.327,268.948 C828.548,275.662 823.341,283.822 818.702,293.424 C814.064,303.027 810.157,313.851 806.984,325.894 L804.420,326.016 C805.153,320.321 805.843,315.030 806.495,310.147 C806.739,308.114 807.003,306.058 807.289,303.983 C807.573,301.907 807.817,299.975 808.021,298.184 C808.223,296.395 808.387,294.808 808.509,293.424 C808.632,292.041 808.693,291.024 808.693,290.372 C808.693,283.212 808.061,277.026 806.800,271.817 C805.538,266.610 803.768,262.296 801.490,258.878 C799.211,255.460 796.486,252.938 793.312,251.309 C790.138,249.682 786.678,248.868 782.936,248.868 C777.889,248.868 772.804,250.253 767.677,253.018 C762.550,255.786 757.484,259.692 752.479,264.737 C747.474,269.784 742.611,275.826 737.892,282.864 C733.171,289.904 728.716,297.757 724.525,306.424 C720.333,315.091 716.468,324.410 712.928,334.378 C709.388,344.348 706.316,354.745 703.712,365.567 C704.933,359.708 706.194,353.402 707.496,346.646 C708.797,339.892 709.999,333.157 711.097,326.444 C712.196,319.730 713.112,313.321 713.844,307.217 C714.576,301.114 714.943,295.785 714.943,291.226 C714.943,285.287 714.555,279.874 713.783,274.991 C713.009,270.108 711.647,265.939 709.694,262.479 C707.740,259.021 705.095,256.335 701.759,254.422 C698.421,252.511 694.231,251.553 689.186,251.553 C685.279,251.553 681.190,252.368 676.918,253.995 C672.645,255.624 668.453,258.370 664.344,262.235 C660.234,266.101 656.328,271.268 652.626,277.737 C648.924,284.207 645.607,292.245 642.677,301.846 C642.353,302.173 642.189,302.579 642.189,303.067 C642.189,303.964 642.311,304.959 642.555,306.058 C642.799,307.156 643.104,308.194 643.470,309.171 C643.837,310.147 644.245,310.983 644.691,311.673 C645.139,312.365 645.567,312.711 645.973,312.711 C647.276,312.711 648.456,312.447 649.513,311.917 C650.570,311.389 651.344,310.513 651.832,309.293 C654.436,305.795 657.283,302.518 660.377,299.466 C663.469,296.414 666.561,293.750 669.654,291.470 C672.746,289.193 675.697,287.381 678.505,286.038 C681.312,284.695 683.693,284.024 685.646,284.024 C686.866,284.024 687.782,284.390 688.392,285.123 C689.003,285.855 689.430,286.731 689.674,287.747 C689.918,288.766 690.040,289.843 690.040,290.982 C690.040,292.123 690.040,293.057 690.040,293.790 C689.388,302.255 688.778,310.189 688.209,317.593 C687.639,325.000 687.008,332.181 686.317,339.139 C685.625,346.097 684.831,353.015 683.937,359.891 C683.040,366.769 681.984,373.868 680.763,381.192 C679.542,388.516 678.077,396.268 676.368,404.446 C674.659,412.625 672.664,421.475 670.387,430.997 C669.735,433.846 669.246,436.673 668.922,439.481 C668.596,442.288 668.434,445.361 668.434,448.697 C668.434,450.406 668.880,451.932 669.777,453.275 C670.671,454.617 671.892,455.758 673.439,456.693 C674.984,457.629 676.754,458.321 678.749,458.768 C680.742,459.216 682.796,459.439 684.913,459.439 C686.702,459.439 688.575,459.256 690.529,458.890 C692.482,458.524 694.313,457.894 696.022,456.998 C697.731,456.103 699.196,454.882 700.416,453.336 C701.637,451.791 702.409,449.796 702.736,447.354 C703.792,439.542 705.379,431.180 707.496,422.269 C709.612,413.358 712.053,404.244 714.821,394.925 C717.586,385.608 720.619,376.290 723.915,366.971 C727.211,357.653 730.629,348.721 734.169,340.176 C737.709,331.632 741.268,323.678 744.850,316.312 C748.430,308.947 751.909,302.539 755.287,297.086 C758.663,291.634 761.818,287.362 764.747,284.268 C767.677,281.176 770.280,279.630 772.560,279.630 C775.325,279.630 777.544,280.362 779.213,281.827 C780.880,283.292 782.161,285.409 783.058,288.174 C783.952,290.942 784.523,294.320 784.767,298.306 C785.011,302.295 785.133,306.811 785.133,311.856 C785.133,319.180 784.645,327.197 783.668,335.904 C782.692,344.613 781.450,353.421 779.945,362.332 C778.438,371.243 776.811,379.992 775.062,388.577 C773.311,397.164 771.684,405.057 770.179,412.259 C768.673,419.461 767.433,425.647 766.456,430.814 C765.480,435.983 764.991,439.624 764.991,441.739 C764.991,444.913 765.377,447.598 766.151,449.796 C766.924,451.993 767.940,453.805 769.203,455.228 C770.464,456.653 771.928,457.690 773.597,458.341 C775.264,458.993 776.954,459.317 778.663,459.317 C780.616,459.317 782.570,459.094 784.523,458.646 C786.476,458.199 788.326,457.486 790.077,456.509 C791.826,455.533 793.373,454.251 794.716,452.664 C796.058,451.077 797.054,449.145 797.706,446.866 C799.171,438.729 800.758,430.102 802.467,420.987 C804.176,411.874 806.007,402.636 807.960,393.277 C809.913,383.920 812.029,374.621 814.308,365.384 C816.585,356.149 819.048,347.318 821.693,338.895 C824.337,330.472 827.144,322.640 830.116,315.396 C833.086,308.154 836.280,301.888 839.698,296.597 C843.116,291.308 846.737,287.158 850.563,284.146 C854.387,281.136 858.455,279.630 862.770,279.630 C865.047,279.630 866.878,280.200 868.263,281.339 C869.646,282.479 870.704,284.085 871.437,286.160 C872.169,288.236 872.657,290.759 872.902,293.729 C873.146,296.700 873.268,300.015 873.268,303.677 C873.268,309.701 872.860,315.987 872.047,322.537 C871.233,329.089 870.216,335.721 868.995,342.435 C867.775,349.149 866.432,355.883 864.967,362.637 C863.502,369.393 862.098,376.025 860.756,382.535 C859.413,389.047 858.211,395.373 857.154,401.517 C856.096,407.662 855.404,413.461 855.079,418.912 C854.997,419.644 854.936,420.377 854.896,421.109 C854.854,421.841 854.835,422.534 854.835,423.184 C854.835,429.044 855.812,434.232 857.765,438.748 C859.718,443.265 862.321,447.049 865.577,450.101 C868.831,453.153 872.554,455.453 876.747,456.998 C880.937,458.545 885.231,459.317 889.625,459.317 C894.182,459.317 898.759,458.627 903.358,457.242 C907.955,455.859 912.492,453.601 916.969,450.467 C921.444,447.335 925.838,443.286 930.153,438.321 C934.465,433.358 938.655,427.295 942.726,420.133 C940.364,413.867 938.533,409.066 937.233,405.728 ZM1010.401,366.557 C1007.228,368.226 1004.237,370.485 1001.429,373.332 C998.622,376.182 996.037,379.436 993.678,383.098 C991.316,386.760 989.283,390.605 987.574,394.633 C985.865,398.662 984.542,402.711 983.607,406.779 C982.670,410.850 982.203,414.674 982.203,418.254 C982.203,420.289 982.344,422.263 982.630,424.175 C982.915,426.088 983.424,427.797 984.156,429.301 C984.889,430.808 985.865,432.029 987.086,432.964 C988.307,433.900 989.852,434.367 991.725,434.367 C994.734,434.367 997.462,433.067 999.903,430.461 C1002.345,427.858 1004.460,424.724 1006.251,421.062 C1008.040,417.400 1009.486,413.615 1010.584,409.709 C1011.683,405.803 1012.395,402.549 1012.721,399.944 L1020.167,364.055 C1016.829,364.055 1013.575,364.890 1010.401,366.557 ZM1111.048,338.176 C1115.157,330.039 1119.044,321.656 1122.706,313.029 C1126.368,304.404 1129.542,295.798 1132.228,287.212 C1134.913,278.627 1136.622,270.631 1137.354,263.225 C1137.354,260.865 1137.293,258.851 1137.171,257.182 C1137.049,255.515 1136.662,254.680 1136.012,254.680 C1133.650,254.680 1131.108,256.206 1128.382,259.258 C1125.655,262.309 1122.929,266.441 1120.204,271.648 C1117.476,276.857 1114.873,282.920 1112.391,289.836 C1109.908,296.754 1107.691,304.118 1105.738,311.931 C1103.785,319.743 1102.238,327.781 1101.100,336.040 C1099.959,344.300 1099.391,352.336 1099.391,360.149 C1103.053,353.639 1106.938,346.315 1111.048,338.176 ZM1193.873,366.557 C1190.699,368.226 1187.708,370.485 1184.901,373.332 C1182.093,376.182 1179.509,379.436 1177.149,383.098 C1174.788,386.760 1172.755,390.605 1171.046,394.633 C1169.337,398.662 1168.013,402.711 1167.079,406.779 C1166.142,410.850 1165.675,414.674 1165.675,418.254 C1165.675,420.289 1165.816,422.263 1166.102,424.175 C1166.386,426.088 1166.895,427.797 1167.628,429.301 C1168.360,430.808 1169.337,432.029 1170.558,432.964 C1171.778,433.900 1173.323,434.367 1175.196,434.367 C1178.206,434.367 1180.934,433.067 1183.375,430.461 C1185.816,427.858 1187.932,424.724 1189.723,421.062 C1191.512,417.400 1192.957,413.615 1194.056,409.709 C1195.155,405.803 1195.866,402.549 1196.192,399.944 L1203.639,364.055 C1200.301,364.055 1197.047,364.890 1193.873,366.557 ZM1705.348,401.225 C1705.184,398.744 1705.061,395.976 1704.981,392.925 C1704.899,389.873 1704.817,386.720 1704.737,383.464 C1704.655,380.210 1704.594,377.238 1704.554,374.553 C1704.512,371.867 1704.451,369.670 1704.371,367.961 C1704.289,366.252 1704.207,365.440 1704.127,365.520 C1698.756,368.125 1693.974,371.562 1689.784,375.835 C1685.591,380.107 1682.093,384.727 1679.286,389.690 C1676.478,394.654 1674.342,399.659 1672.877,404.704 C1671.412,409.751 1670.680,414.308 1670.680,418.376 C1670.680,420.005 1670.863,421.632 1671.229,423.259 C1671.595,424.888 1672.267,426.353 1673.243,427.654 C1674.220,428.956 1675.603,430.015 1677.394,430.827 C1679.183,431.642 1681.502,432.048 1684.352,432.048 C1685.816,432.048 1687.260,431.682 1688.685,430.949 C1690.108,430.217 1691.472,429.261 1692.774,428.081 C1694.075,426.902 1695.317,425.559 1696.498,424.052 C1697.676,422.548 1698.756,420.982 1699.732,419.353 C1702.010,415.611 1704.085,411.378 1705.958,406.657 C1705.714,405.519 1705.510,403.709 1705.348,401.225 ZM1746.241,334.270 C1747.868,329.795 1749.516,325.095 1751.185,320.171 C1752.852,315.248 1754.378,310.304 1755.763,305.339 C1757.145,300.376 1758.345,295.493 1759.364,290.691 C1760.380,285.890 1761.092,281.333 1761.500,277.019 C1761.988,271.323 1762.232,266.807 1762.232,263.469 C1762.232,259.074 1761.845,256.023 1761.073,254.314 C1760.298,252.605 1759.181,251.750 1757.716,251.750 C1755.110,251.750 1752.751,253.398 1750.636,256.694 C1748.519,259.990 1746.647,264.201 1745.020,269.328 C1743.392,274.455 1741.969,280.112 1740.748,286.296 C1739.527,292.482 1738.509,298.463 1737.696,304.240 C1736.882,310.020 1736.231,315.227 1735.743,319.865 C1735.255,324.504 1734.929,327.800 1734.767,329.753 C1734.440,333.741 1734.175,337.587 1733.973,341.289 C1733.769,344.993 1733.626,348.369 1733.546,351.421 C1733.464,354.472 1733.424,357.139 1733.424,359.416 C1733.424,361.695 1733.424,363.445 1733.424,364.665 L1733.424,365.886 C1738.062,355.308 1742.335,344.768 1746.241,334.270 ZM1815.882,398.174 C1819.340,396.669 1822.554,394.736 1825.526,392.375 C1828.496,390.016 1830.998,387.452 1833.033,384.685 C1835.066,381.919 1836.085,379.234 1836.085,376.628 C1836.085,372.966 1835.414,369.956 1834.071,367.595 C1832.728,365.236 1831.080,364.055 1829.127,364.055 C1825.627,364.055 1822.636,364.707 1820.155,366.008 C1817.671,367.311 1815.596,368.999 1813.929,371.074 C1812.260,373.149 1810.917,375.510 1809.901,378.154 C1808.882,380.799 1808.110,383.464 1807.582,386.150 C1807.051,388.835 1806.706,391.441 1806.544,393.962 C1806.380,396.486 1806.300,398.643 1806.300,400.432 C1809.229,400.432 1812.422,399.680 1815.882,398.174 ZM2037.562,412.395 C2037.276,410.117 2036.910,407.939 2036.463,405.864 C2036.015,403.789 2035.527,401.836 2034.999,400.005 C2034.468,398.174 2034.001,396.608 2033.595,395.305 L2002.970,425.810 L2003.037,426.692 C2003.790,426.933 2004.596,427.495 2005.457,428.386 C2006.636,429.607 2008.000,430.949 2009.547,432.414 C2011.092,433.879 2012.883,435.222 2014.918,436.443 C2016.951,437.663 2019.270,438.274 2021.876,438.274 C2025.050,438.274 2027.674,437.745 2029.749,436.687 C2031.825,435.630 2033.473,434.226 2034.693,432.475 C2035.914,430.726 2036.769,428.691 2037.257,426.372 C2037.745,424.052 2037.989,421.632 2037.989,419.109 C2037.989,416.911 2037.846,414.674 2037.562,412.395 ZM1530.421,318.034 C1528.468,320.070 1526.005,321.717 1523.036,322.978 C1520.064,324.241 1516.505,324.870 1512.354,324.870 C1505.192,324.870 1499.903,323.182 1496.485,319.804 C1493.067,316.428 1491.358,311.931 1491.358,306.316 C1491.358,304.445 1491.765,302.329 1492.579,299.968 C1493.392,297.609 1494.715,295.390 1496.546,293.315 C1498.377,291.240 1500.819,289.491 1503.871,288.066 C1506.922,286.643 1510.726,285.930 1515.284,285.930 C1518.132,285.930 1520.817,286.256 1523.341,286.906 C1525.862,287.559 1528.060,288.554 1529.933,289.897 C1531.804,291.240 1533.290,293.010 1534.388,295.207 C1535.487,297.404 1536.036,300.010 1536.036,303.020 C1536.036,305.787 1535.588,308.473 1534.693,311.076 C1533.797,313.682 1532.374,316.001 1530.421,318.034 ZM1074.427,307.964 C1074.061,309.550 1073.470,311.198 1072.657,312.907 C1071.843,314.616 1070.704,316.203 1069.239,317.668 C1067.774,319.133 1065.922,320.354 1063.685,321.330 C1061.446,322.307 1058.699,322.795 1055.445,322.795 C1050.398,322.795 1046.269,321.391 1043.055,318.584 C1039.839,315.776 1038.233,311.158 1038.233,304.729 C1038.233,302.043 1038.600,299.419 1039.332,296.855 C1040.064,294.292 1041.224,292.033 1042.811,290.080 C1044.398,288.127 1046.391,286.540 1048.792,285.320 C1051.192,284.099 1054.103,283.488 1057.520,283.488 C1063.298,283.488 1067.692,285.035 1070.704,288.127 C1073.714,291.221 1075.221,295.696 1075.221,301.555 C1075.221,301.881 1075.179,302.634 1075.099,303.813 C1075.017,304.994 1074.793,306.377 1074.427,307.964 ZM1017.359,307.964 C1016.951,309.550 1016.341,311.198 1015.528,312.907 C1014.714,314.616 1013.575,316.203 1012.110,317.668 C1010.645,319.133 1008.793,320.354 1006.556,321.330 C1004.317,322.307 1001.612,322.795 998.438,322.795 C993.229,322.795 989.058,321.391 985.926,318.584 C982.792,315.776 981.227,311.158 981.227,304.729 C981.227,302.043 981.593,299.419 982.325,296.855 C983.058,294.292 984.196,292.033 985.743,290.080 C987.288,288.127 989.283,286.540 991.725,285.320 C994.166,284.099 997.096,283.488 1000.514,283.488 C1006.209,283.488 1010.584,285.035 1013.636,288.127 C1016.688,291.221 1018.214,295.696 1018.214,301.555 C1018.214,301.881 1018.172,302.634 1018.092,303.813 C1018.010,304.994 1017.766,306.377 1017.359,307.964 Z" class="cls-1"/>
</svg>
